<?xml version="1.0" standalone="no"?>
<!DOCTYPE svg PUBLIC "-//W3C//DTD SVG 20010904//EN"
 "http://www.w3.org/TR/2001/REC-SVG-20010904/DTD/svg10.dtd">
<svg version="1.0" xmlns="http://www.w3.org/2000/svg"
 width="244.000000pt" height="244.000000pt" viewBox="0 0 244.000000 244.000000"
 preserveAspectRatio="xMidYMid meet">
<metadata>
Created by potrace 1.14, written by Peter Selinger 2001-2017
</metadata>
<g transform="translate(0.000000,244.000000) scale(0.100000,-0.100000)"
fill="#000000" stroke="none">
<path d="M1056 2358 c3 -5 10 -6 15 -3 13 9 11 12 -6 12 -8 0 -12 -4 -9 -9z"/>
<path d="M1090 2354 c0 -6 -12 -11 -27 -11 -16 0 -46 -1 -67 -1 -36 -2 -38 -3
-21 -15 14 -11 15 -16 5 -22 -9 -5 -11 -4 -6 3 9 14 -6 16 -20 3 -5 -5 -22
-11 -39 -13 -16 -2 -29 -8 -28 -13 1 -6 -10 -12 -25 -13 -26 -2 -45 -20 -36
-34 5 -8 -23 -12 -56 -9 -11 1 -9 -3 5 -15 l20 -16 -20 4 c-14 2 -19 -2 -17
-14 1 -9 -2 -19 -8 -23 -5 -3 -7 0 -4 8 3 8 1 18 -5 22 -7 3 -11 -2 -11 -14 0
-19 -11 -26 -34 -22 -5 1 -6 -5 -3 -14 4 -8 2 -15 -3 -15 -6 0 -9 -5 -8 -12 2
-7 -4 -12 -12 -13 -9 0 -15 -10 -15 -25 -1 -14 -6 -24 -13 -22 -7 1 -12 -4
-12 -12 0 -7 -9 -16 -19 -19 -14 -3 -21 -15 -23 -38 -2 -19 -8 -33 -13 -32 -6
1 -11 -13 -12 -30 -2 -59 -7 -77 -20 -77 -8 0 -13 -12 -13 -30 0 -19 -5 -30
-14 -30 -10 0 -14 -12 -12 -40 0 -22 -2 -40 -5 -40 -3 0 -5 -24 -4 -54 1 -47
-1 -53 -17 -48 -16 4 -18 -3 -18 -67 0 -42 -4 -70 -9 -66 -5 3 -13 1 -16 -5
-4 -6 -1 -9 7 -8 9 2 13 -13 13 -59 0 -33 -3 -59 -7 -57 -4 2 -5 13 -3 24 2
11 0 22 -4 24 -4 3 -7 -9 -7 -27 1 -18 6 -35 13 -40 7 -4 10 -14 7 -22 -4 -8
-10 -12 -15 -9 -7 4 -15 -128 -10 -159 1 -5 -3 -6 -8 -2 -11 6 -22 -41 -24
-104 -1 -23 -6 -41 -10 -41 -4 0 -7 6 -5 14 2 8 -1 14 -7 13 -5 -1 -9 -5 -8
-8 1 -4 -2 -21 -7 -38 -5 -17 -5 -33 0 -36 4 -3 6 -13 4 -23 -3 -9 2 -26 11
-37 10 -14 13 -15 9 -4 -3 10 -1 20 5 24 6 3 11 -2 11 -12 0 -10 8 -30 17 -43
l17 -24 7 24 c7 24 7 24 8 3 1 -19 7 -23 34 -25 17 0 41 0 52 1 20 2 20 2 0
-13 -19 -15 -19 -15 8 -17 15 -1 32 -3 37 -4 6 -1 16 -3 23 -4 8 -1 8 -4 -3
-11 -9 -5 -19 -5 -25 0 -8 6 -12 5 -12 -4 0 -9 9 -13 24 -11 13 1 31 -4 39
-12 18 -18 8 -39 -12 -22 -11 9 -15 8 -20 -4 -3 -9 -3 -20 0 -25 3 -6 -1 -16
-10 -23 -8 -7 -14 -8 -12 -3 2 5 -1 9 -7 9 -5 0 -9 -5 -7 -11 1 -7 -7 -14 -18
-17 -14 -4 -18 -10 -13 -23 5 -13 3 -16 -9 -12 -9 4 -15 0 -15 -8 0 -9 6 -13
16 -9 11 5 11 1 -3 -14 -14 -15 -18 -35 -17 -80 0 -36 -4 -61 -10 -61 -6 0 -7
5 -3 12 5 7 3 8 -6 3 -10 -6 -9 -11 4 -21 21 -15 17 -45 -8 -60 -17 -10 -17
-12 -2 -17 10 -4 15 -3 11 3 -3 6 -1 10 4 10 6 0 11 -4 11 -10 0 -5 0 -13 0
-17 0 -12 -24 -10 -32 2 -4 5 -8 1 -8 -10 0 -17 -7 -21 -45 -22 -25 -1 -45 1
-45 6 0 5 -10 11 -23 14 -21 6 -21 6 -3 -8 18 -14 15 -15 -35 -16 -30 -1 -59
-1 -66 0 -17 2 -25 -16 -12 -25 8 -4 9 -3 5 4 -10 17 3 15 21 -4 13 -12 13
-15 2 -14 -28 4 -40 0 -33 -12 5 -8 2 -9 -10 -5 -9 4 -15 3 -12 -2 5 -8 66
-12 248 -15 47 0 84 -4 81 -8 -7 -13 12 -9 27 4 12 11 12 10 1 -5 -8 -9 -11
-20 -7 -24 3 -4 13 2 21 13 10 13 13 14 10 3 -6 -16 0 -18 48 -19 29 -1 49 3
66 14 10 7 12 5 6 -3 -5 -10 4 -12 37 -10 24 2 49 0 55 -4 6 -4 14 -3 18 3 4
7 12 7 24 0 10 -5 21 -7 25 -3 7 7 76 10 76 3 0 -5 265 -5 285 0 19 5 34 0 51
-17 16 -16 16 -16 9 6 -6 20 -5 21 12 13 10 -5 33 -7 52 -4 22 3 32 1 27 -6
-3 -6 -1 -14 5 -18 8 -4 9 -3 5 5 -12 19 28 26 109 21 42 -3 79 -2 81 1 2 3
24 3 49 -1 25 -4 45 -4 45 -1 0 3 11 6 25 6 14 0 25 -4 25 -8 0 -5 5 -5 11 -1
6 3 32 6 57 6 35 1 46 -3 44 -13 -3 -11 -1 -12 9 -1 17 16 43 16 33 0 -6 -10
-5 -10 7 -1 19 15 77 24 85 12 3 -5 11 -6 17 -2 7 4 22 6 35 4 12 -1 22 2 22
8 0 6 -8 8 -17 4 -10 -3 -15 -3 -11 1 3 4 12 8 20 10 7 1 20 6 28 11 13 8 13
7 1 -8 -8 -10 -11 -20 -7 -24 3 -4 12 2 20 12 10 14 15 15 21 5 5 -9 4 -11 -3
-6 -7 4 -12 3 -12 -2 0 -5 24 -9 54 -8 34 1 52 5 49 12 -5 14 -33 14 -33 0 0
-6 -5 -4 -10 4 -6 10 -10 11 -10 3 0 -17 -16 -17 -23 0 -3 9 17 12 84 12 49 0
89 4 89 8 0 4 8 4 17 -2 13 -7 23 -5 37 7 11 9 16 11 12 5 -5 -10 2 -12 25 -9
49 5 49 26 0 26 -23 0 -41 5 -41 11 0 5 6 7 13 3 9 -6 9 -5 0 7 -7 9 -31 16
-55 17 -23 1 -45 8 -50 15 -6 9 -8 9 -8 0 0 -8 -13 -13 -31 -13 -25 0 -30 3
-25 17 6 14 3 14 -15 -3 -17 -14 -21 -15 -17 -3 5 12 -1 15 -22 15 -16 0 -27
-3 -24 -7 2 -5 11 -6 19 -2 8 3 15 1 15 -5 0 -8 -14 -9 -54 -3 -5 0 -6 4 -3 8
4 3 0 11 -9 18 -9 6 -17 23 -17 37 -1 14 -6 24 -10 21 -5 -3 -6 -11 -3 -19 4
-10 -2 -13 -19 -12 -29 3 -29 3 -11 20 11 12 4 14 -45 15 -32 0 -56 -3 -53 -8
3 -5 1 -9 -5 -9 -5 0 -12 6 -15 13 -5 9 -7 9 -12 0 -3 -7 -10 -13 -15 -13 -6
0 -7 5 -4 11 4 6 1 10 -6 8 -8 -1 -33 -1 -56 0 -37 1 -43 4 -43 23 0 12 8 31
18 42 15 18 15 19 0 8 -15 -12 -17 -11 -15 7 0 11 6 19 11 18 6 -1 13 13 16
32 3 19 12 36 20 38 10 3 11 2 4 -4 -13 -9 -15 -43 -2 -43 4 0 9 6 9 13 4 32
6 65 8 100 0 20 5 37 11 37 5 0 7 -7 4 -15 -4 -8 -2 -15 3 -15 5 0 10 12 11
27 1 15 9 31 17 36 8 4 15 15 15 22 0 8 7 15 15 15 10 0 15 7 13 18 -2 11 4
18 20 20 19 3 22 10 23 45 1 23 1 45 0 49 0 5 2 7 7 7 21 -4 32 2 26 14 -5 7
-2 7 10 -2 9 -8 16 -10 15 -5 -4 23 2 65 9 60 13 -8 33 10 35 32 1 17 4 19 16
9 12 -10 13 -8 7 11 -4 13 -3 22 3 22 6 0 7 7 4 17 -4 10 -2 14 5 9 15 -9 21
4 24 61 2 27 8 50 14 50 6 0 11 -6 11 -13 0 -7 -5 -10 -10 -7 -6 3 -7 1 -3 -5
14 -23 23 -12 24 30 1 23 7 45 13 49 8 4 7 8 -2 12 -10 4 -8 6 4 6 10 1 15 6
12 12 -4 6 2 13 14 16 19 5 26 19 22 50 -1 6 3 14 9 18 5 3 7 0 4 -8 -3 -8 -1
-18 4 -21 5 -3 10 0 9 7 -1 46 4 59 21 55 20 -6 21 -3 21 67 0 76 3 72 -56 77
-7 1 -13 6 -13 11 0 5 7 6 16 3 8 -3 12 -2 9 4 -3 6 -17 10 -29 10 -22 0 -23
4 -22 54 2 45 -1 56 -16 59 -13 4 -18 -1 -18 -13 0 -29 -19 -34 -29 -8 -8 20
-10 17 -10 -19 -1 -37 -3 -41 -23 -37 -13 2 -17 2 -10 -2 18 -9 15 -22 -9 -35
-20 -10 -21 -9 -17 15 4 20 1 26 -13 26 -21 0 -28 10 -31 44 -1 14 -7 26 -13
26 -6 0 -12 12 -13 28 -1 15 -9 32 -17 38 -8 6 -15 25 -15 43 0 24 -4 31 -20
31 -19 0 -25 14 -21 48 1 6 -4 12 -12 12 -7 0 -14 10 -14 23 -2 33 -8 56 -18
64 -4 4 -5 2 0 -6 5 -9 4 -12 -2 -8 -6 4 -11 18 -12 32 -3 53 -4 56 -15 45 -5
-5 -15 -10 -20 -10 -6 0 -5 4 3 9 9 6 10 14 5 22 -5 8 -9 18 -9 24 0 5 -15 13
-32 19 -30 8 -31 10 -15 22 16 13 16 13 0 14 -10 0 -18 5 -18 10 0 6 -9 19
-20 30 -16 16 -18 25 -10 40 13 24 2 27 -15 3 -9 -13 -14 -13 -20 -3 -5 9 -4
11 3 6 7 -4 12 -2 12 3 0 6 -4 11 -10 11 -5 0 -10 7 -10 15 0 10 -10 15 -31
15 -26 0 -31 3 -26 20 5 20 -2 24 -36 20 -10 -1 -16 4 -15 12 2 8 -8 14 -24
16 -24 3 -32 11 -30 32 0 3 -20 6 -46 8 -49 3 -65 9 -58 21 3 3 -4 7 -15 7
-18 0 -18 -2 -5 -11 12 -9 7 -12 -24 -11 -21 1 -41 4 -45 7 -3 4 6 5 20 4 14
-2 25 1 25 6 0 5 -47 9 -105 9 -77 0 -105 -3 -105 -12 0 -10 -2 -10 -8 0 -10
15 -62 12 -62 -4z m50 -9 c0 -2 -9 -3 -19 -2 -11 0 -18 5 -15 9 4 6 34 0 34
-7z m365 -43 c-3 -3 -11 0 -18 7 -9 10 -8 11 6 5 10 -3 15 -9 12 -12z m305
-256 c0 -2 -7 -7 -16 -10 -8 -3 -12 -2 -9 4 6 10 25 14 25 6z m-1197 -41 c4
-8 3 -16 -1 -19 -4 -3 -9 4 -9 15 -2 23 3 25 10 4z m-23 -71 c0 -8 -5 -12 -10
-9 -6 4 -8 11 -5 16 9 14 15 11 15 -7z m-63 -169 c0 -8 -4 -15 -9 -15 -10 0
-11 14 -1 23 9 10 10 9 10 -8z m1737 -370 c3 -8 1 -15 -4 -15 -6 0 -10 7 -10
15 0 8 2 15 4 15 2 0 6 -7 10 -15z m-1643 -702 c13 -16 12 -17 -3 -4 -10 7
-18 15 -18 17 0 8 8 3 21 -13z m1189 -63 c0 -5 -5 -10 -11 -10 -5 0 -7 5 -4
10 3 6 8 10 11 10 2 0 4 -4 4 -10z m-5 -240 c3 -5 1 -10 -4 -10 -6 0 -11 5
-11 10 0 6 2 10 4 10 3 0 8 -4 11 -10z m116 -13 c-10 -9 -11 -8 -5 6 3 10 9
15 12 12 3 -3 0 -11 -7 -18z m32 8 c-3 -9 -8 -14 -10 -11 -3 3 -2 9 2 15 9 16
15 13 8 -4z m30 0 c-3 -9 -8 -14 -10 -11 -3 3 -2 9 2 15 9 16 15 13 8 -4z
m315 -97 c9 -9 12 -9 12 0 0 7 5 12 12 12 9 0 9 -3 0 -12 -14 -14 -45 -20 -37
-8 3 5 -1 11 -7 13 -7 3 -8 6 -2 6 5 1 15 -4 22 -11z"/>
<path d="M2110 2291 c0 -5 11 -8 24 -5 14 2 27 1 30 -4 2 -4 -10 -8 -27 -8
-84 -3 -87 -4 -87 -24 0 -14 -7 -20 -22 -21 -13 0 -17 -3 -10 -6 6 -2 12 -9
12 -14 0 -6 -5 -7 -10 -4 -7 5 -10 -20 -9 -74 2 -80 5 -91 25 -71 6 6 10 -6
12 -37 2 -50 14 -73 27 -52 6 8 4 10 -5 4 -9 -6 -11 -4 -6 4 5 7 26 12 50 11
67 -3 76 -1 76 16 0 12 -4 14 -12 7 -7 -5 -19 -8 -25 -7 -7 1 -20 2 -28 3 -8
0 -15 5 -15 10 0 4 10 7 23 7 30 -3 42 5 26 15 -8 5 -9 9 -3 9 20 0 47 -39 41
-60 -4 -18 -3 -19 9 -9 8 7 12 21 9 33 -5 18 -3 17 10 -4 15 -23 16 -23 12 -3
-4 18 0 22 22 25 22 3 26 7 23 31 -2 18 2 29 12 33 12 5 16 19 15 55 -1 26 -6
46 -11 43 -4 -3 -8 2 -8 11 0 10 5 13 12 9 7 -4 8 -3 4 5 -4 6 -12 9 -17 6 -5
-4 -9 -1 -9 5 0 6 -4 8 -10 5 -5 -3 -10 0 -10 7 0 10 -3 9 -11 -2 -9 -13 -10
-13 -6 0 2 8 11 14 20 14 9 -1 14 3 11 8 -3 5 -12 7 -20 4 -8 -3 -14 -1 -14 4
0 5 -7 7 -15 3 -10 -3 -15 -1 -13 7 2 9 -13 14 -49 17 -30 2 -53 -1 -53 -6z"/>
<path d="M1640 2250 c-9 -6 -10 -10 -3 -10 6 0 15 5 18 10 8 12 4 12 -15 0z"/>
<path d="M634 2086 c1 -8 5 -18 8 -22 4 -3 5 1 4 10 -1 8 -5 18 -8 22 -4 3 -5
-1 -4 -10z"/>
<path d="M2293 2075 c0 -8 4 -15 9 -15 4 0 8 7 8 15 0 8 -4 15 -8 15 -5 0 -9
-7 -9 -15z"/>
<path d="M2018 2033 c6 -2 9 -10 6 -15 -4 -7 -2 -8 5 -4 13 9 5 26 -12 25 -9
0 -8 -2 1 -6z"/>
<path d="M2256 2007 c3 -10 9 -15 12 -12 3 3 0 11 -7 18 -10 9 -11 8 -5 -6z"/>
<path d="M537 1881 c-4 -17 -3 -21 5 -13 5 5 8 16 6 23 -3 8 -7 3 -11 -10z"/>
<path d="M1895 1880 c-3 -5 -1 -10 4 -10 6 0 11 5 11 10 0 6 -2 10 -4 10 -3 0
-8 -4 -11 -10z"/>
<path d="M473 1653 c-3 -10 -7 -21 -9 -24 -2 -3 2 -6 9 -6 7 0 12 11 12 24 0
28 -3 29 -12 6z"/>
<path d="M2131 1634 c0 -11 3 -14 6 -6 3 7 2 16 -1 19 -3 4 -6 -2 -5 -13z"/>
<path d="M2196 1634 c-8 -20 -8 -24 2 -24 4 0 8 9 9 20 2 24 -3 26 -11 4z"/>
<path d="M2026 1602 c-3 -5 1 -9 9 -9 8 0 12 4 9 9 -3 4 -7 8 -9 8 -2 0 -6 -4
-9 -8z"/>
<path d="M435 1500 c-3 -5 -1 -10 4 -10 6 0 11 5 11 10 0 6 -2 10 -4 10 -3 0
-8 -4 -11 -10z"/>
<path d="M430 1439 c0 -5 5 -7 10 -4 6 3 10 8 10 11 0 2 -4 4 -10 4 -5 0 -10
-5 -10 -11z"/>
<path d="M1965 870 c-3 -5 -1 -10 4 -10 6 0 11 5 11 10 0 6 -2 10 -4 10 -3 0
-8 -4 -11 -10z"/>
<path d="M460 506 c0 -2 8 -10 18 -17 15 -13 16 -12 3 4 -13 16 -21 21 -21 13z"/>
<path d="M467 415 c3 -8 9 -12 14 -9 12 7 11 11 -5 17 -10 4 -13 1 -9 -8z"/>
<path d="M387 327 c2 -4 16 -5 30 -3 38 7 38 14 -1 12 -19 0 -32 -4 -29 -9z"/>
<path d="M2200 330 c-9 -6 -10 -10 -3 -10 6 0 15 5 18 10 8 12 4 12 -15 0z"/>
<path d="M393 217 c-3 -4 -2 -11 1 -14 3 -4 6 -1 6 6 0 7 5 9 13 4 19 -12 130
-12 117 1 -12 12 -129 16 -137 3z"/>
<path d="M2198 223 c6 -3 10 -8 8 -12 -3 -4 1 -8 9 -8 26 0 23 22 -4 23 -14 1
-20 -1 -13 -3z"/>
<path d="M1236 187 c3 -10 9 -15 12 -12 3 3 0 11 -7 18 -10 9 -11 8 -5 -6z"/>
<path d="M1075 180 c3 -5 8 -10 11 -10 2 0 4 5 4 10 0 6 -5 10 -11 10 -5 0 -7
-4 -4 -10z"/>
<path d="M1166 182 c-3 -5 1 -9 9 -9 8 0 15 4 15 9 0 4 -4 8 -9 8 -6 0 -12 -4
-15 -8z"/>
<path d="M1206 182 c-3 -5 1 -9 9 -9 8 0 12 4 9 9 -3 4 -7 8 -9 8 -2 0 -6 -4
-9 -8z"/>
<path d="M1762 46 c7 -8 15 -12 17 -11 5 6 -10 25 -20 25 -5 0 -4 -6 3 -14z"/>
</g>
</svg>
